<svg xmlns="http://www.w3.org/2000/svg" viewBox="0 0 1200 760" role="img" aria-labelledby="title desc">
  <title id="title">Theme audit matrix</title>
  <desc id="desc">A clean mockup of the automated render audit matrix for light and dark themes.</desc>
  <defs>
    <filter id="shadow" x="-20%" y="-20%" width="140%" height="140%">
      <feDropShadow dx="0" dy="26" stdDeviation="34" flood-color="#000" flood-opacity=".3"/>
    </filter>
  </defs>
  <rect width="1200" height="760" fill="#091717"/>
  <circle cx="112" cy="92" r="210" fill="#21808d" opacity=".1"/>
  <circle cx="1082" cy="646" r="260" fill="#d97757" opacity=".07"/>

  <g filter="url(#shadow)">
    <rect x="122" y="84" width="956" height="592" rx="30" fill="#0e1c1d"/>
    <rect x="123" y="85" width="954" height="590" rx="29" fill="none" stroke="#ffffff" opacity=".08"/>
  </g>

  <g transform="translate(174 140)">
    <rect width="852" height="64" rx="18" fill="#163030"/>
    <circle cx="34" cy="32" r="11" fill="#21808d"/>
    <rect x="64" y="24" width="160" height="16" rx="8" fill="#fbfaf4" opacity=".9"/>
    <rect x="660" y="22" width="70" height="20" rx="10" fill="#21808d"/>
    <rect x="744" y="22" width="70" height="20" rx="10" fill="#21808d" opacity=".72"/>
  </g>
  <g transform="translate(174 228)">
    <rect width="852" height="64" rx="18" fill="#163030"/>
    <circle cx="34" cy="32" r="11" fill="#21808d"/>
    <rect x="64" y="24" width="150" height="16" rx="8" fill="#fbfaf4" opacity=".86"/>
    <rect x="660" y="22" width="70" height="20" rx="10" fill="#21808d"/>
    <rect x="744" y="22" width="70" height="20" rx="10" fill="#21808d" opacity=".72"/>
  </g>
  <g transform="translate(174 316)">
    <rect width="852" height="64" rx="18" fill="#163030"/>
    <circle cx="34" cy="32" r="11" fill="#21808d"/>
    <rect x="64" y="24" width="186" height="16" rx="8" fill="#fbfaf4" opacity=".82"/>
    <rect x="660" y="22" width="70" height="20" rx="10" fill="#21808d"/>
    <rect x="744" y="22" width="70" height="20" rx="10" fill="#21808d" opacity=".72"/>
  </g>

  <g transform="translate(174 438)">
    <rect width="250" height="150" rx="22" fill="#163030" stroke="#ffffff" stroke-opacity=".08"/>
    <rect x="26" y="28" width="116" height="16" rx="8" fill="#fbfaf4" opacity=".84"/>
    <rect x="26" y="66" width="188" height="10" rx="5" fill="#c8d3d0" opacity=".56"/>
    <rect x="26" y="90" width="148" height="10" rx="5" fill="#c8d3d0" opacity=".42"/>
  </g>
  <g transform="translate(475 438)">
    <rect width="250" height="150" rx="22" fill="#163030" stroke="#ffffff" stroke-opacity=".08"/>
    <rect x="26" y="28" width="92" height="16" rx="8" fill="#fbfaf4" opacity=".84"/>
    <rect x="26" y="66" width="190" height="10" rx="5" fill="#c8d3d0" opacity=".56"/>
    <rect x="26" y="90" width="164" height="10" rx="5" fill="#c8d3d0" opacity=".42"/>
  </g>
  <g transform="translate(776 438)">
    <rect width="250" height="150" rx="22" fill="#163030" stroke="#ffffff" stroke-opacity=".08"/>
    <rect x="26" y="28" width="128" height="16" rx="8" fill="#fbfaf4" opacity=".84"/>
    <rect x="26" y="66" width="178" height="10" rx="5" fill="#c8d3d0" opacity=".56"/>
    <rect x="26" y="90" width="150" height="10" rx="5" fill="#c8d3d0" opacity=".42"/>
  </g>
</svg>
