<svg xmlns="http://www.w3.org/2000/svg" viewBox="0 0 1200 760" role="img" aria-labelledby="title desc">
  <title id="title">Light and dark ChatGPT theme comparison</title>
  <desc id="desc">Simple shape-only comparison of a light themed ChatGPT page and a dark themed ChatGPT page.</desc>
  <rect width="1200" height="760" fill="#111110"/>

  <g transform="translate(62 64)">
    <rect width="516" height="632" rx="24" fill="#faf9f5"/>
    <rect x="1" y="1" width="514" height="630" rx="23" fill="none" stroke="#141413" stroke-opacity=".12"/>
    <rect width="120" height="632" rx="24" fill="#f2f0e8"/>
    <path d="M120 1v630" stroke="#141413" stroke-opacity=".1"/>

    <rect x="28" y="44" width="54" height="12" rx="6" fill="#141413"/>
    <rect x="28" y="92" width="64" height="26" rx="9" fill="#e8e6dc"/>
    <rect x="28" y="142" width="64" height="9" rx="4.5" fill="#76736a"/>
    <rect x="28" y="172" width="78" height="9" rx="4.5" fill="#76736a" opacity=".75"/>
    <rect x="28" y="202" width="52" height="9" rx="4.5" fill="#76736a" opacity=".55"/>
    <rect x="28" y="264" width="72" height="1" fill="#141413" opacity=".12"/>
    <rect x="28" y="292" width="68" height="9" rx="4.5" fill="#76736a" opacity=".45"/>
    <rect x="28" y="322" width="54" height="9" rx="4.5" fill="#76736a" opacity=".35"/>

    <g transform="translate(170 74)">
      <rect x="250" y="0" width="46" height="34" rx="17" fill="#e8e6dc"/>
      <rect x="268" y="12" width="10" height="10" rx="5" fill="#141413"/>
      <rect y="82" width="240" height="20" rx="10" fill="#141413"/>
      <rect y="126" width="300" height="10" rx="5" fill="#4f4f4b"/>
      <rect y="152" width="258" height="10" rx="5" fill="#4f4f4b" opacity=".7"/>
      <rect y="206" width="292" height="128" rx="14" fill="#f2f0e8" stroke="#141413" stroke-opacity=".12"/>
      <rect x="24" y="232" width="126" height="9" rx="4.5" fill="#141413"/>
      <rect x="24" y="258" width="236" height="8" rx="4" fill="#4f4f4b" opacity=".75"/>
      <rect x="24" y="282" width="204" height="8" rx="4" fill="#4f4f4b" opacity=".55"/>
      <rect y="420" width="312" height="66" rx="20" fill="#f2f0e8" stroke="#141413" stroke-opacity=".12"/>
      <rect x="26" y="446" width="132" height="9" rx="4.5" fill="#76736a"/>
      <rect x="262" y="438" width="18" height="18" rx="9" fill="#d97757"/>
    </g>
  </g>

  <g transform="translate(622 64)">
    <rect width="516" height="632" rx="24" fill="#141413"/>
    <rect x="1" y="1" width="514" height="630" rx="23" fill="none" stroke="#faf9f5" stroke-opacity=".1"/>
    <rect width="120" height="632" rx="24" fill="#1d1c1a"/>
    <path d="M120 1v630" stroke="#faf9f5" stroke-opacity=".08"/>

    <rect x="28" y="44" width="54" height="12" rx="6" fill="#faf9f5"/>
    <rect x="28" y="92" width="64" height="26" rx="9" fill="#292722"/>
    <rect x="28" y="142" width="64" height="9" rx="4.5" fill="#b0aea5"/>
    <rect x="28" y="172" width="78" height="9" rx="4.5" fill="#b0aea5" opacity=".75"/>
    <rect x="28" y="202" width="52" height="9" rx="4.5" fill="#b0aea5" opacity=".55"/>
    <rect x="28" y="264" width="72" height="1" fill="#faf9f5" opacity=".1"/>
    <rect x="28" y="292" width="68" height="9" rx="4.5" fill="#b0aea5" opacity=".45"/>
    <rect x="28" y="322" width="54" height="9" rx="4.5" fill="#b0aea5" opacity=".35"/>

    <g transform="translate(170 74)">
      <rect x="250" y="0" width="46" height="34" rx="17" fill="#2e2b24"/>
      <rect x="268" y="12" width="10" height="10" rx="5" fill="#faf9f5"/>
      <rect y="82" width="240" height="20" rx="10" fill="#faf9f5"/>
      <rect y="126" width="300" height="10" rx="5" fill="#d8d5ca"/>
      <rect y="152" width="258" height="10" rx="5" fill="#d8d5ca" opacity=".7"/>
      <rect y="206" width="292" height="128" rx="14" fill="#1d1c1a" stroke="#faf9f5" stroke-opacity=".12"/>
      <rect x="24" y="232" width="126" height="9" rx="4.5" fill="#faf9f5"/>
      <rect x="24" y="258" width="236" height="8" rx="4" fill="#d8d5ca" opacity=".75"/>
      <rect x="24" y="282" width="204" height="8" rx="4" fill="#d8d5ca" opacity=".55"/>
      <rect y="420" width="312" height="66" rx="20" fill="#1d1c1a" stroke="#faf9f5" stroke-opacity=".12"/>
      <rect x="26" y="446" width="132" height="9" rx="4.5" fill="#b0aea5"/>
      <rect x="262" y="438" width="18" height="18" rx="9" fill="#d97757"/>
    </g>
  </g>
</svg>
