<svg xmlns="http://www.w3.org/2000/svg" viewBox="0 0 1200 760" role="img" aria-labelledby="title desc">
  <title id="title">Themed ChatGPT surface</title>
  <desc id="desc">A mock ChatGPT conversation surface styled with a Claude-like theme.</desc>
  <defs>
    <filter id="shadow" x="-20%" y="-20%" width="140%" height="140%">
      <feDropShadow dx="0" dy="24" stdDeviation="32" flood-color="#000" flood-opacity=".32"/>
    </filter>
    <linearGradient id="fade" x1="0" y1="0" x2="0" y2="1">
      <stop offset="0" stop-color="#141413" stop-opacity="0"/>
      <stop offset=".9" stop-color="#141413"/>
    </linearGradient>
  </defs>
  <rect width="1200" height="760" fill="#0d0d0c"/>

  <g filter="url(#shadow)">
    <rect x="74" y="48" width="1052" height="664" rx="28" fill="#141413"/>
    <rect x="75" y="49" width="1050" height="662" rx="27" fill="none" stroke="#ffffff" opacity=".08"/>
  </g>

  <rect x="74" y="48" width="238" height="664" rx="28" fill="#1d1c1a"/>
  <path d="M312 49v662" stroke="#ffffff" opacity=".08"/>
  <text x="112" y="102" fill="#faf9f5" font-family="Inter, Arial, sans-serif" font-size="18" font-weight="700">ChatGPT</text>
  <rect x="108" y="142" width="164" height="36" rx="10" fill="#292722"/>
  <rect x="108" y="194" width="164" height="36" rx="10" fill="transparent"/>
  <rect x="108" y="246" width="164" height="36" rx="10" fill="transparent"/>
  <rect x="108" y="324" width="164" height="1" fill="#ffffff" opacity=".08"/>
  <rect x="108" y="352" width="132" height="12" rx="6" fill="#b0aea5" opacity=".42"/>
  <rect x="108" y="382" width="150" height="12" rx="6" fill="#b0aea5" opacity=".34"/>
  <rect x="108" y="412" width="118" height="12" rx="6" fill="#b0aea5" opacity=".26"/>

  <g transform="translate(378 88)">
    <rect x="516" y="0" width="74" height="44" rx="22" fill="#2e2b24"/>
    <text x="543" y="28" fill="#faf9f5" font-family="Inter, Arial, sans-serif" font-size="14" font-weight="650">ey</text>
    <text x="0" y="98" fill="#faf9f5" font-family="Georgia, serif" font-size="29" font-weight="600">The exact behavior that works</text>
    <rect x="0" y="132" width="590" height="14" rx="7" fill="#faf9f5" opacity=".9"/>
    <rect x="0" y="166" width="540" height="14" rx="7" fill="#faf9f5" opacity=".86"/>
    <g transform="translate(0 218)">
      <rect width="650" height="222" rx="14" fill="#1d1c1a" stroke="#ffffff" stroke-opacity=".12"/>
      <rect width="650" height="44" rx="14" fill="#292722"/>
      <rect x="0" y="42" width="650" height="1" fill="#ffffff" opacity=".1"/>
      <text x="22" y="29" fill="#faf9f5" font-family="Inter, Arial, sans-serif" font-size="14" font-weight="700">Rank</text>
      <text x="140" y="29" fill="#faf9f5" font-family="Inter, Arial, sans-serif" font-size="14" font-weight="700">Place</text>
      <text x="300" y="29" fill="#faf9f5" font-family="Inter, Arial, sans-serif" font-size="14" font-weight="700">My take</text>
      <rect x="22" y="72" width="32" height="12" rx="6" fill="#faf9f5" opacity=".9"/>
      <rect x="140" y="72" width="90" height="12" rx="6" fill="#faf9f5" opacity=".9"/>
      <rect x="300" y="72" width="275" height="12" rx="6" fill="#faf9f5" opacity=".78"/>
      <rect x="22" y="118" width="32" height="12" rx="6" fill="#faf9f5" opacity=".82"/>
      <rect x="140" y="118" width="82" height="12" rx="6" fill="#faf9f5" opacity=".82"/>
      <rect x="300" y="118" width="310" height="12" rx="6" fill="#faf9f5" opacity=".68"/>
      <rect x="22" y="164" width="32" height="12" rx="6" fill="#faf9f5" opacity=".74"/>
      <rect x="140" y="164" width="128" height="12" rx="6" fill="#faf9f5" opacity=".74"/>
      <rect x="300" y="164" width="240" height="12" rx="6" fill="#faf9f5" opacity=".58"/>
      <path d="M0 100h650M0 146h650" stroke="#ffffff" opacity=".08"/>
    </g>
    <rect x="120" y="510" width="540" height="86" rx="22" fill="#1d1c1a" stroke="#ffffff" stroke-opacity=".12"/>
    <rect x="146" y="538" width="230" height="13" rx="7" fill="#b0aea5" opacity=".85"/>
    <circle cx="584" cy="552" r="12" fill="#d97757"/>
  </g>

  <rect x="314" y="592" width="812" height="120" fill="url(#fade)"/>
</svg>
