<svg xmlns="http://www.w3.org/2000/svg" viewBox="0 0 1200 760" role="img" aria-labelledby="title desc">
  <title id="title">Themes for ChatGPT popup</title>
  <desc id="desc">A clean mockup of the extension popup showing theme cards and the mode switcher.</desc>
  <defs>
    <filter id="shadow" x="-20%" y="-20%" width="140%" height="140%">
      <feDropShadow dx="0" dy="26" stdDeviation="30" flood-color="#000" flood-opacity=".34"/>
    </filter>
    <linearGradient id="bg" x1="0" x2="1" y1="0" y2="1">
      <stop offset="0" stop-color="#171615"/>
      <stop offset=".55" stop-color="#10100f"/>
      <stop offset="1" stop-color="#1f1d1a"/>
    </linearGradient>
  </defs>
  <rect width="1200" height="760" fill="url(#bg)"/>
  <circle cx="1030" cy="120" r="180" fill="#d97757" opacity=".08"/>
  <circle cx="170" cy="655" r="220" fill="#21808d" opacity=".08"/>

  <g filter="url(#shadow)">
    <rect x="410" y="70" width="380" height="620" rx="34" fill="#111110"/>
    <rect x="411" y="71" width="378" height="618" rx="33" fill="none" stroke="#ffffff" opacity=".08"/>
  </g>

  <g transform="translate(440 104)">
    <rect width="48" height="48" rx="14" fill="#d97757"/>
    <path d="M16 24h16M24 16v16" stroke="#141413" stroke-width="3" stroke-linecap="round"/>
    <text x="62" y="22" fill="#faf9f5" font-family="Inter, Arial, sans-serif" font-size="20" font-weight="650">Themes for ChatGPT</text>
    <text x="62" y="46" fill="#969189" font-family="Inter, Arial, sans-serif" font-size="13">Chrome · Firefox · Zen</text>
  </g>

  <g transform="translate(440 188)">
    <text x="0" y="25" fill="#969189" font-family="Inter, Arial, sans-serif" font-size="14" font-weight="600">Mode</text>
    <rect x="96" width="244" height="42" rx="14" fill="#1d1c1a" stroke="#ffffff" stroke-opacity=".08"/>
    <rect x="100" y="4" width="78" height="34" rx="11" fill="#faf9f5"/>
    <text x="124" y="26" fill="#141413" font-family="Inter, Arial, sans-serif" font-size="13" font-weight="650">Auto</text>
    <text x="199" y="26" fill="#b0aea5" font-family="Inter, Arial, sans-serif" font-size="13" font-weight="550">Light</text>
    <text x="277" y="26" fill="#b0aea5" font-family="Inter, Arial, sans-serif" font-size="13" font-weight="550">Dark</text>
  </g>

  <g transform="translate(440 262)">
    <g>
      <rect width="158" height="118" rx="20" fill="#24221f" stroke="#d97757" stroke-width="2"/>
      <rect x="18" y="20" width="25" height="22" rx="7" fill="#faf9f5"/>
      <rect x="50" y="20" width="25" height="22" rx="7" fill="#e8e6dc"/>
      <rect x="82" y="20" width="25" height="22" rx="7" fill="#141413"/>
      <rect x="114" y="20" width="25" height="22" rx="7" fill="#d97757"/>
      <text x="18" y="79" fill="#faf9f5" font-family="Inter, Arial, sans-serif" font-size="16" font-weight="650">Claude</text>
      <circle cx="132" cy="82" r="10" fill="#d97757"/>
      <path d="M127 82l4 4 8-9" fill="none" stroke="#141413" stroke-width="2" stroke-linecap="round" stroke-linejoin="round"/>
    </g>
    <g transform="translate(182 0)">
      <rect width="158" height="118" rx="20" fill="#1d1c1a" stroke="#ffffff" stroke-opacity=".08"/>
      <rect x="18" y="20" width="25" height="22" rx="7" fill="#ffffff"/>
      <rect x="50" y="20" width="25" height="22" rx="7" fill="#f1f3f4"/>
      <rect x="82" y="20" width="25" height="22" rx="7" fill="#1f1f1f"/>
      <rect x="114" y="20" width="25" height="22" rx="7" fill="#8ab4f8"/>
      <text x="18" y="79" fill="#faf9f5" font-family="Inter, Arial, sans-serif" font-size="16" font-weight="650">Gemini</text>
    </g>
    <g transform="translate(0 142)">
      <rect width="158" height="118" rx="20" fill="#1d1c1a" stroke="#ffffff" stroke-opacity=".08"/>
      <rect x="18" y="20" width="25" height="22" rx="7" fill="#fbfaf4"/>
      <rect x="50" y="20" width="25" height="22" rx="7" fill="#e2ebe8"/>
      <rect x="82" y="20" width="25" height="22" rx="7" fill="#091717"/>
      <rect x="114" y="20" width="25" height="22" rx="7" fill="#21808d"/>
      <text x="18" y="79" fill="#faf9f5" font-family="Inter, Arial, sans-serif" font-size="16" font-weight="650">Perplexity</text>
    </g>
    <g transform="translate(182 142)">
      <rect width="158" height="118" rx="20" fill="#1d1c1a" stroke="#ffffff" stroke-opacity=".08"/>
      <rect x="18" y="20" width="25" height="22" rx="7" fill="#212121"/>
      <rect x="50" y="20" width="25" height="22" rx="7" fill="#f7f7f8"/>
      <rect x="82" y="20" width="25" height="22" rx="7" fill="#10a37f"/>
      <rect x="114" y="20" width="25" height="22" rx="7" fill="#ececf1"/>
      <text x="18" y="79" fill="#faf9f5" font-family="Inter, Arial, sans-serif" font-size="16" font-weight="650">Default</text>
    </g>
  </g>
</svg>
